<?xml version="1.0" standalone="no"?>
<!DOCTYPE svg PUBLIC "-//W3C//DTD SVG 20010904//EN"
 "http://www.w3.org/TR/2001/REC-SVG-20010904/DTD/svg10.dtd">
<svg version="1.0" xmlns="http://www.w3.org/2000/svg"
 width="797.000000pt" height="184.000000pt" viewBox="0 0 797.000000 184.000000"
 preserveAspectRatio="xMidYMid meet">

<g transform="translate(0.000000,184.000000) scale(0.100000,-0.100000)"
fill="#000000" stroke="none">
<path d="M821 1799 c-257 -61 -477 -238 -596 -477 -37 -75 -66 -174 -56 -190
6 -11 95 -52 112 -52 4 0 32 -11 61 -24 29 -13 79 -34 111 -47 50 -20 60 -29
76 -64 21 -48 74 -80 116 -69 29 7 75 58 75 83 0 20 25 34 148 82 83 33 83 33
116 15 25 -13 45 -16 73 -11 36 6 44 2 105 -47 36 -29 93 -75 127 -101 50 -40
61 -54 61 -78 0 -45 25 -85 61 -98 45 -15 51 -14 94 15 32 21 46 25 79 20 47
-7 220 -39 223 -41 4 -2 -38 -107 -64 -159 -38 -75 -78 -131 -139 -191 -159
-160 -352 -244 -565 -247 -118 -2 -167 5 -259 34 -139 44 -231 100 -334 202
-104 102 -179 230 -215 368 -22 86 -36 178 -26 178 4 0 18 -9 32 -19 29 -24
53 -17 53 13 0 21 -61 82 -107 109 -19 12 -127 -72 -131 -102 -5 -29 24 -38
58 -18 l28 17 6 -58 c24 -202 122 -402 266 -542 429 -415 1138 -292 1407 245
34 67 65 174 59 200 -7 26 -24 31 -210 60 -98 16 -100 17 -142 62 -42 45 -44
46 -91 40 l-48 -7 -125 103 c-112 92 -125 106 -127 137 -4 48 -33 83 -77 95
-51 12 -85 -7 -111 -63 -11 -23 -29 -45 -40 -48 -11 -3 -33 -12 -50 -20 -124
-55 -158 -64 -175 -49 -22 20 -90 19 -118 -1 -14 -10 -27 -12 -35 -7 -7 5 -74
33 -149 63 -76 30 -138 60 -138 67 0 20 65 157 104 217 74 116 218 237 347
291 318 136 661 73 899 -164 84 -83 135 -156 175 -245 43 -97 88 -296 68 -296
-5 0 -19 7 -31 16 -26 18 -52 5 -52 -26 0 -15 56 -64 117 -103 14 -9 133 87
133 107 0 8 -7 19 -15 26 -13 11 -21 9 -45 -8 -16 -12 -31 -22 -33 -22 -2 0
-7 27 -10 60 -23 213 -131 424 -290 564 -115 102 -197 147 -352 196 -104 32
-319 37 -434 9z m233 -632 c28 -21 17 -52 -19 -52 -33 0 -45 25 -25 50 15 18
21 19 44 2z m-401 -179 c13 -20 -6 -48 -34 -48 -22 0 -35 36 -18 56 15 18 38
15 52 -8z m822 -173 c0 -38 -37 -48 -55 -15 -14 27 4 52 34 48 16 -2 21 -10
21 -33z"/>
<path d="M4930 975 l0 -485 85 0 85 0 0 108 c1 101 2 109 27 137 l26 29 16
-21 c9 -12 57 -73 106 -137 l90 -116 98 0 c53 0 97 2 97 5 0 7 -243 330 -272
361 -18 21 -18 21 92 127 l111 107 -115 0 -114 0 -75 -70 c-41 -38 -78 -70
-81 -70 -3 0 -6 115 -6 255 l0 255 -85 0 -85 0 0 -485z"/>
<path d="M7280 975 l0 -485 76 0 c65 0 77 3 81 18 4 18 6 18 46 -2 63 -31 166
-29 238 7 68 33 106 70 144 139 27 48 30 62 30 143 0 78 -4 97 -27 140 -28 54
-108 135 -133 135 -8 0 -15 4 -15 9 0 13 -122 32 -161 25 -19 -4 -50 -15 -69
-24 -19 -10 -39 -19 -43 -21 -5 -2 -8 87 -7 199 l1 202 -81 0 -80 0 0 -485z
m342 -25 c56 -16 96 -54 112 -110 31 -104 -38 -200 -142 -200 -49 0 -86 17
-122 55 -22 23 -25 36 -25 100 0 64 3 77 25 101 21 22 91 63 110 64 3 0 22 -5
42 -10z"/>
<path d="M2430 1426 c0 -9 40 -163 65 -251 14 -49 39 -137 55 -195 16 -58 40
-145 55 -195 14 -49 37 -136 52 -193 l27 -102 80 0 81 0 35 62 c19 34 49 85
65 114 17 28 52 90 78 137 26 48 52 89 56 92 11 6 14 0 146 -232 l97 -173 78
0 78 0 16 48 c8 26 20 65 25 87 5 22 39 146 76 275 36 129 75 269 86 310 11
41 26 95 34 120 7 25 16 57 19 73 l6 27 -89 0 c-77 0 -90 -3 -95 -17 -8 -30
-72 -258 -127 -455 -28 -104 -54 -188 -58 -188 -6 0 -27 32 -54 83 -7 12 -43
77 -81 145 l-70 122 -82 0 -82 0 -98 -175 c-54 -96 -103 -174 -108 -172 -9 3
-24 54 -81 267 -13 52 -39 142 -55 200 -17 58 -36 124 -41 148 l-11 42 -89 0
c-49 0 -89 -2 -89 -4z"/>
<path d="M5680 960 l0 -470 85 0 c74 0 85 2 85 18 0 9 1 112 3 227 l2 210 190
0 190 0 3 -227 2 -228 85 0 85 0 0 470 0 470 -85 0 -84 0 -3 -152 -3 -153
-184 -3 c-141 -2 -187 1 -193 10 -4 7 -8 76 -7 153 l1 140 -86 3 -86 3 0 -471z"/>
<path d="M3940 1096 c-70 -20 -104 -41 -154 -97 -90 -101 -102 -253 -28 -373
72 -117 220 -171 357 -132 45 14 71 30 116 72 75 72 102 134 102 232 -1 164
-123 293 -289 307 -34 2 -78 -1 -104 -9z m168 -163 c47 -35 65 -70 70 -130 3
-48 0 -64 -20 -92 -33 -48 -66 -70 -118 -77 -60 -8 -109 13 -146 62 -25 32
-29 47 -29 98 0 70 26 115 85 147 44 24 120 20 158 -8z"/>
<path d="M4710 1093 c-25 -8 -53 -22 -63 -31 -17 -15 -18 -14 -24 6 -5 20 -11
22 -87 22 l-81 0 3 -300 3 -300 79 0 80 0 0 167 c0 149 2 171 21 210 22 46 52
67 112 78 29 6 38 13 43 34 3 14 10 42 15 61 16 61 13 70 -23 70 -18 -1 -53
-8 -78 -17z"/>
<path d="M6582 876 l3 -215 41 -57 c27 -39 57 -67 95 -88 48 -28 63 -31 134
-31 93 0 154 24 210 83 63 64 75 117 75 332 l0 190 -79 0 -79 0 -4 -182 c-3
-172 -4 -185 -26 -215 -46 -64 -146 -62 -189 3 -15 24 -18 54 -21 211 l-4 183
-80 0 -79 0 3 -214z"/>
</g>
</svg>
